<svg xmlns="http://www.w3.org/2000/svg" xmlns:xlink="http://www.w3.org/1999/xlink" viewBox="0 0 502 502"><defs><linearGradient id="c" x1="50%" x2="50%" y1="100%" y2="0%"><stop offset="0%" stop-color="#F5F5FA"/><stop offset="100%" stop-color="#FFF"/></linearGradient><rect id="b" width="224" height="311" rx="4"/><filter id="a" width="125.9%" height="118.6%" x="-12.9%" y="-7.1%" filterUnits="objectBoundingBox"><feOffset dy="5" in="SourceAlpha" result="shadowOffsetOuter1"/><feGaussianBlur in="shadowOffsetOuter1" result="shadowBlurOuter1" stdDeviation="7.5"/><feColorMatrix in="shadowBlurOuter1" result="shadowMatrixOuter1" values="0 0 0 0 0.145098039 0 0 0 0 0.17254902 0 0 0 0 0.380392157 0 0 0 0.15 0"/><feOffset dy="2" in="SourceAlpha" result="shadowOffsetOuter2"/><feGaussianBlur in="shadowOffsetOuter2" result="shadowBlurOuter2" stdDeviation="2"/><feColorMatrix in="shadowBlurOuter2" result="shadowMatrixOuter2" values="0 0 0 0 0.364705882 0 0 0 0 0.392156863 0 0 0 0 0.580392157 0 0 0 0.2 0"/><feMerge><feMergeNode in="shadowMatrixOuter1"/><feMergeNode in="shadowMatrixOuter2"/></feMerge></filter><rect id="e" width="222" height="297" x="33" y="39" rx="4"/><filter id="d" width="126.1%" height="119.5%" x="-13.1%" y="-7.4%" filterUnits="objectBoundingBox"><feOffset dy="5" in="SourceAlpha" result="shadowOffsetOuter1"/><feGaussianBlur in="shadowOffsetOuter1" result="shadowBlurOuter1" stdDeviation="7.5"/><feColorMatrix in="shadowBlurOuter1" result="shadowMatrixOuter1" values="0 0 0 0 0.145098039 0 0 0 0 0.17254902 0 0 0 0 0.380392157 0 0 0 0.15 0"/><feOffset dy="2" in="SourceAlpha" result="shadowOffsetOuter2"/><feGaussianBlur in="shadowOffsetOuter2" result="shadowBlurOuter2" stdDeviation="2"/><feColorMatrix in="shadowBlurOuter2" result="shadowMatrixOuter2" values="0 0 0 0 0.364705882 0 0 0 0 0.392156863 0 0 0 0 0.580392157 0 0 0 0.2 0"/><feMerge><feMergeNode in="shadowMatrixOuter1"/><feMergeNode in="shadowMatrixOuter2"/></feMerge></filter></defs><g fill="none" fill-rule="evenodd"><g stroke-width="1.142"><path stroke="#C5C9E0" d="M237.301 215.795L149.401 1M215.612 232.648l-213.47-90.26"/><path stroke="#C5C9E0" stroke-dasharray="11.416" d="M215.612 260.069L1 348.044"/><path stroke="#C5C9E0" d="M237.301 286.205L147.12 499.857M264.699 286.205L352.599 501"/><path stroke="#EC8B63" d="M286.388 260.069l212.329 90.26"/><path stroke="#C5C9E0" stroke-dasharray="11.416" d="M286.388 232.648L501 144.674"/><path stroke="#C5C9E0" d="M264.699 215.795L354.88 2.143M251.578 212.083L251 48.7"/><path stroke="#C5C9E0" stroke-dasharray="11.416" d="M225.886 222.366L82.05 78.406"/><path stroke="#C5C9E0" d="M217.895 246.359l-204.338.578M225.886 273.78L82.05 417.737"/><path stroke="#C5C9E0" stroke-dasharray="11.416" d="M251 293.202l.578 204.513"/><path stroke="#C5C9E0" d="M274.973 273.78l143.835 143.958M285.247 246.937l204.337-.578M274.973 222.366l143.835-143.96"/></g><g transform="translate(124 84)"><use fill="#000" filter="url(#a)" xlink:href="#b"/><use fill="url(#c)" xlink:href="#b"/><use fill="#000" filter="url(#d)" xlink:href="#e"/><use fill="url(#c)" xlink:href="#e"/><g transform="translate(202 52)"><ellipse cx="18.778" cy="18.763" fill="#EC8B63" rx="18.778" ry="18.763"/><path fill="#FFF" d="M27.555 13.584v1.957a4.907 4.907 0 0 0-2.567-.722c-.503 0-.896.113-1.18.337a1.056 1.056 0 0 0-.424.867c0 .192.045.366.136.521.091.155.243.305.457.45.214.144.404.259.57.344.166.086.414.203.746.353.406.182.743.348 1.01.498.268.15.554.35.859.601.305.252.532.556.682.915.15.358.224.762.224 1.21 0 .835-.264 1.528-.794 2.079-.53.55-1.243.89-2.142 1.018v1.781h-1.62v-1.765c-.888-.085-1.631-.3-2.23-.641v-2.07c.92.663 1.925.995 3.016.995.492 0 .888-.12 1.187-.361.3-.24.45-.564.45-.97a.944.944 0 0 0-.057-.33 1.614 1.614 0 0 0-.128-.273.982.982 0 0 0-.233-.248 6.49 6.49 0 0 0-.272-.209 3.182 3.182 0 0 0-.361-.208 7.164 7.164 0 0 0-.377-.185 54.116 54.116 0 0 0-.45-.192 9.219 9.219 0 0 1-.449-.2c-.738-.343-1.323-.739-1.756-1.188-.434-.45-.65-1.064-.65-1.845 0-.834.278-1.519.834-2.054.556-.534 1.31-.855 2.262-.962v-1.765h1.637v1.797c.62.085 1.16.24 1.62.465z"/><g stroke="#FFF" stroke-linecap="round" stroke-linejoin="round" stroke-width="2"><path d="M10.685 15.336l7.042 7.038M17.727 15.336v7.038h-7.042"/></g></g><g transform="translate(67 90)"><ellipse cx="76.458" cy="76.408" fill="#FDF1D4" rx="76.458" ry="76.408"/><path fill="#EC8B63" d="M53.909 35.339h45.53a5.172 5.172 0 0 1 5.076 4.18l14.223 72.748a5.172 5.172 0 0 1-5.077 6.165H99.747a5.172 5.172 0 0 1-4.894-3.498l-12.832-37.51a5.172 5.172 0 0 0-9.825.114L60.398 114.82a5.172 5.172 0 0 1-4.932 3.612H38.847a5.172 5.172 0 0 1-5.065-6.221l15.062-72.749a5.172 5.172 0 0 1 5.065-4.123z"/></g><rect width="145" height="15" x="56" y="287" fill="#FCD7B7" rx="7.5"/><rect width="54" height="8" x="56" y="272" fill="#F8BE9A" rx="4"/></g><path fill="#EC8B63" d="M161.74 99.384c.8 0 1.526.186 2.178.558a4.065 4.065 0 0 1 1.542 1.548c.376.66.564 1.406.564 2.238 0 .832-.19 1.58-.57 2.244a4.096 4.096 0 0 1-1.548 1.554 4.293 4.293 0 0 1-2.166.558 4.293 4.293 0 0 1-2.166-.558 4.096 4.096 0 0 1-1.548-1.554c-.38-.664-.57-1.412-.57-2.244 0-.832.19-1.578.57-2.238.38-.66.896-1.176 1.548-1.548a4.293 4.293 0 0 1 2.166-.558zm0 1.908c-.672 0-1.206.218-1.602.654-.396.436-.594 1.03-.594 1.782 0 .744.198 1.336.594 1.776.396.44.93.66 1.602.66.664 0 1.196-.22 1.596-.66.4-.44.6-1.032.6-1.776s-.198-1.336-.594-1.776c-.396-.44-.93-.66-1.602-.66zm13.032-1.776v1.632h-2.304V108h-2.064v-6.852h-2.28v-1.632h6.648zm9.696 0V108h-2.064v-3.54h-3.216V108h-2.052v-8.484h2.052v3.288h3.216v-3.288h2.064zm4.968 1.632v1.776h2.868v1.548h-2.868v1.884h3.228V108h-5.28v-8.484h5.28v1.632h-3.228zM199.684 108l-1.836-3.204h-.468V108h-2.052v-8.484h3.504c.672 0 1.24.116 1.704.348.464.232.812.55 1.044.954.232.404.348.866.348 1.386 0 .616-.17 1.14-.51 1.572-.34.432-.834.728-1.482.888l2.016 3.336h-2.268zm-2.304-4.608h1.272c.408 0 .708-.09.9-.27.192-.18.288-.446.288-.798 0-.336-.098-.6-.294-.792-.196-.192-.494-.288-.894-.288h-1.272v2.148zm12.972-3.876v4.896c0 .56.126.988.378 1.284.252.296.618.444 1.098.444.48 0 .846-.148 1.098-.444.252-.296.378-.724.378-1.284v-4.896h2.052v4.896c0 .8-.156 1.474-.468 2.022-.312.548-.738.96-1.278 1.236s-1.15.414-1.83.414c-.68 0-1.28-.136-1.8-.408a2.898 2.898 0 0 1-1.224-1.236c-.296-.552-.444-1.228-.444-2.028v-4.896h2.04zm13.968 6.096c0 .448-.114.86-.342 1.236-.228.376-.564.676-1.008.9-.444.224-.982.336-1.614.336-.952 0-1.736-.232-2.352-.696-.616-.464-.952-1.112-1.008-1.944h2.184c.032.32.146.572.342.756.196.184.446.276.75.276.264 0 .472-.072.624-.216a.756.756 0 0 0 .228-.576.744.744 0 0 0-.21-.54 1.646 1.646 0 0 0-.522-.354 11.949 11.949 0 0 0-.864-.33 10.608 10.608 0 0 1-1.314-.534 2.42 2.42 0 0 1-.876-.768c-.244-.34-.366-.782-.366-1.326 0-.504.128-.94.384-1.308.256-.368.61-.65 1.062-.846.452-.196.97-.294 1.554-.294.944 0 1.694.224 2.25.672.556.448.87 1.064.942 1.848h-2.22c-.04-.28-.142-.502-.306-.666-.164-.164-.386-.246-.666-.246-.24 0-.434.064-.582.192-.148.128-.222.316-.222.564 0 .2.066.37.198.51s.298.254.498.342c.2.088.488.2.864.336.544.184.988.366 1.332.546.344.18.64.442.888.786.248.344.372.792.372 1.344zm4.692-4.464v1.776h2.868v1.548h-2.868v1.884h3.228V108h-5.28v-8.484h5.28v1.632h-3.228zM239.26 108l-1.836-3.204h-.468V108h-2.052v-8.484h3.504c.672 0 1.24.116 1.704.348.464.232.812.55 1.044.954.232.404.348.866.348 1.386 0 .616-.17 1.14-.51 1.572-.34.432-.834.728-1.482.888l2.016 3.336h-2.268zm-2.304-4.608h1.272c.408 0 .708-.09.9-.27.192-.18.288-.446.288-.798 0-.336-.098-.6-.294-.792-.196-.192-.494-.288-.894-.288h-1.272v2.148zm13.176 2.22c0 .448-.114.86-.342 1.236-.228.376-.564.676-1.008.9-.444.224-.982.336-1.614.336-.952 0-1.736-.232-2.352-.696-.616-.464-.952-1.112-1.008-1.944h2.184c.032.32.146.572.342.756.196.184.446.276.75.276.264 0 .472-.072.624-.216a.756.756 0 0 0 .228-.576.744.744 0 0 0-.21-.54 1.646 1.646 0 0 0-.522-.354 11.949 11.949 0 0 0-.864-.33 10.608 10.608 0 0 1-1.314-.534 2.42 2.42 0 0 1-.876-.768c-.244-.34-.366-.782-.366-1.326 0-.504.128-.94.384-1.308.256-.368.61-.65 1.062-.846.452-.196.97-.294 1.554-.294.944 0 1.694.224 2.25.672.556.448.87 1.064.942 1.848h-2.22c-.04-.28-.142-.502-.306-.666-.164-.164-.386-.246-.666-.246-.24 0-.434.064-.582.192-.148.128-.222.316-.222.564 0 .2.066.37.198.51s.298.254.498.342c.2.088.488.2.864.336.544.184.988.366 1.332.546.344.18.64.442.888.786.248.344.372.792.372 1.344zm11.796.84h-3.18L258.22 108h-2.16l3.108-8.424h2.364L264.64 108h-2.184l-.528-1.548zm-.528-1.56l-1.056-3.12-1.068 3.12h2.124zm7.584 1.536h2.736V108h-4.788v-8.484h2.052v6.912zm11.28-.816c0 .448-.114.86-.342 1.236-.228.376-.564.676-1.008.9-.444.224-.982.336-1.614.336-.952 0-1.736-.232-2.352-.696-.616-.464-.952-1.112-1.008-1.944h2.184c.032.32.146.572.342.756.196.184.446.276.75.276.264 0 .472-.072.624-.216a.756.756 0 0 0 .228-.576.744.744 0 0 0-.21-.54 1.646 1.646 0 0 0-.522-.354 11.949 11.949 0 0 0-.864-.33 10.608 10.608 0 0 1-1.314-.534 2.42 2.42 0 0 1-.876-.768c-.244-.34-.366-.782-.366-1.326 0-.504.128-.94.384-1.308.256-.368.61-.65 1.062-.846.452-.196.97-.294 1.554-.294.944 0 1.694.224 2.25.672.556.448.87 1.064.942 1.848h-2.22c-.04-.28-.142-.502-.306-.666-.164-.164-.386-.246-.666-.246-.24 0-.434.064-.582.192-.148.128-.222.316-.222.564 0 .2.066.37.198.51s.298.254.498.342c.2.088.488.2.864.336.544.184.988.366 1.332.546.344.18.64.442.888.786.248.344.372.792.372 1.344zm6.672-6.228c.8 0 1.526.186 2.178.558a4.065 4.065 0 0 1 1.542 1.548c.376.66.564 1.406.564 2.238 0 .832-.19 1.58-.57 2.244a4.096 4.096 0 0 1-1.548 1.554 4.293 4.293 0 0 1-2.166.558 4.293 4.293 0 0 1-2.166-.558 4.096 4.096 0 0 1-1.548-1.554c-.38-.664-.57-1.412-.57-2.244 0-.832.19-1.578.57-2.238.38-.66.896-1.176 1.548-1.548a4.293 4.293 0 0 1 2.166-.558zm0 1.908c-.672 0-1.206.218-1.602.654-.396.436-.594 1.03-.594 1.782 0 .744.198 1.336.594 1.776.396.44.93.66 1.602.66.664 0 1.196-.22 1.596-.66.4-.44.6-1.032.6-1.776s-.198-1.336-.594-1.776c-.396-.44-.93-.66-1.602-.66zm12.888 5.136h2.736V108h-4.788v-8.484h2.052v6.912zm7.236-6.912V108h-2.052v-8.484h2.052zm6.912 4.152l3.42 4.332h-2.484l-2.88-3.804V108h-2.052v-8.484h2.052v3.732l2.904-3.732h2.46l-3.42 4.152zm7.836-2.52v1.776h2.868v1.548h-2.868v1.884h3.228V108h-5.28v-8.484h5.28v1.632h-3.228z"/></g></svg>
