<svg xmlns="http://www.w3.org/2000/svg" width="141" height="141"><g fill="#EC8B63" fill-rule="evenodd"><path d="M0 0h1v1H0zM20 0h1v1h-1zM40 0h1v1h-1zM60 0h1v1h-1zM80 0h1v1h-1zM100 0h1v1h-1zM120 0h1v1h-1zM140 0h1v1h-1zM0 20h1v1H0zM20 20h1v1h-1zM40 20h1v1h-1zM60 20h1v1h-1zM80 20h1v1h-1zM100 20h1v1h-1zM120 20h1v1h-1zM140 20h1v1h-1zM0 40h1v1H0zM20 40h1v1h-1zM40 40h1v1h-1zM60 40h1v1h-1zM80 40h1v1h-1zM100 40h1v1h-1zM120 40h1v1h-1zM140 40h1v1h-1zM0 60h1v1H0zM20 60h1v1h-1zM40 60h1v1h-1zM60 60h1v1h-1zM80 60h1v1h-1zM100 60h1v1h-1zM120 60h1v1h-1zM140 60h1v1h-1zM0 80h1v1H0zM20 80h1v1h-1zM40 80h1v1h-1zM60 80h1v1h-1zM80 80h1v1h-1zM100 80h1v1h-1zM120 80h1v1h-1zM140 80h1v1h-1zM0 100h1v1H0zM20 100h1v1h-1zM40 100h1v1h-1zM60 100h1v1h-1zM80 100h1v1h-1zM100 100h1v1h-1zM120 100h1v1h-1zM140 100h1v1h-1zM0 120h1v1H0zM20 120h1v1h-1zM40 120h1v1h-1zM60 120h1v1h-1zM80 120h1v1h-1zM100 120h1v1h-1zM120 120h1v1h-1zM140 120h1v1h-1zM0 140h1v1H0zM20 140h1v1h-1zM40 140h1v1h-1zM60 140h1v1h-1zM80 140h1v1h-1zM100 140h1v1h-1zM120 140h1v1h-1zM140 140h1v1h-1z"/></g></svg>