<svg xmlns="http://www.w3.org/2000/svg" xmlns:xlink="http://www.w3.org/1999/xlink" viewBox="0 0 502 502"><defs><linearGradient id="c" x1="50%" x2="50%" y1="100%" y2="0%"><stop offset="0%" stop-color="#F5F5FA"/><stop offset="100%" stop-color="#FFF"/></linearGradient><rect id="b" width="279" height="76" rx="4"/><filter id="a" width="120.8%" height="176.3%" x="-10.4%" y="-28.9%" filterUnits="objectBoundingBox"><feOffset dy="5" in="SourceAlpha" result="shadowOffsetOuter1"/><feGaussianBlur in="shadowOffsetOuter1" result="shadowBlurOuter1" stdDeviation="7.5"/><feColorMatrix in="shadowBlurOuter1" result="shadowMatrixOuter1" values="0 0 0 0 0.145098039 0 0 0 0 0.17254902 0 0 0 0 0.380392157 0 0 0 0.15 0"/><feOffset dy="2" in="SourceAlpha" result="shadowOffsetOuter2"/><feGaussianBlur in="shadowOffsetOuter2" result="shadowBlurOuter2" stdDeviation="2"/><feColorMatrix in="shadowBlurOuter2" result="shadowMatrixOuter2" values="0 0 0 0 0.364705882 0 0 0 0 0.392156863 0 0 0 0 0.580392157 0 0 0 0.2 0"/><feMerge><feMergeNode in="shadowMatrixOuter1"/><feMergeNode in="shadowMatrixOuter2"/></feMerge></filter><rect id="e" width="371" height="67" x="19" y="42" rx="4"/><filter id="d" width="115.6%" height="186.6%" x="-7.8%" y="-32.8%" filterUnits="objectBoundingBox"><feOffset dy="5" in="SourceAlpha" result="shadowOffsetOuter1"/><feGaussianBlur in="shadowOffsetOuter1" result="shadowBlurOuter1" stdDeviation="7.5"/><feColorMatrix in="shadowBlurOuter1" result="shadowMatrixOuter1" values="0 0 0 0 0.145098039 0 0 0 0 0.17254902 0 0 0 0 0.380392157 0 0 0 0.15 0"/><feOffset dy="2" in="SourceAlpha" result="shadowOffsetOuter2"/><feGaussianBlur in="shadowOffsetOuter2" result="shadowBlurOuter2" stdDeviation="2"/><feColorMatrix in="shadowBlurOuter2" result="shadowMatrixOuter2" values="0 0 0 0 0.364705882 0 0 0 0 0.392156863 0 0 0 0 0.580392157 0 0 0 0.2 0"/><feMerge><feMergeNode in="shadowMatrixOuter1"/><feMergeNode in="shadowMatrixOuter2"/></feMerge></filter></defs><g fill="none" fill-rule="evenodd"><path stroke="#C5C9E0" d="M294 251c0 23.748-19.252 43-43 43s-43-19.252-43-43 19.252-43 43-43 43 19.252 43 43z"/><path stroke="#C5C9E0" d="M376 251.5c0 68.759-55.74 124.5-124.5 124.5-68.76 0-124.5-55.741-124.5-124.5S182.74 127 251.5 127c68.76 0 124.5 55.741 124.5 124.5z"/><path stroke="#3AB2BD" d="M420 252c0 92.783-75.216 168-168 168S84 344.783 84 252 159.216 84 252 84s168 75.217 168 168z"/><path stroke="#C5C9E0" stroke-dasharray="10" d="M464 253.5C464 369.756 369.756 464 253.5 464S43 369.756 43 253.5 137.244 43 253.5 43 464 137.244 464 253.5z"/><path stroke="#C5C9E0" d="M501 251c0 138.071-111.929 250-250 250S1 389.071 1 251 112.929 1 251 1s250 111.929 250 250z"/><g transform="translate(57 188)"><use fill="#000" filter="url(#a)" xlink:href="#b"/><use fill="url(#c)" xlink:href="#b"/></g><g transform="translate(57 188)"><use fill="#000" filter="url(#d)" xlink:href="#e"/><use fill="url(#c)" xlink:href="#e"/></g><path fill="#3AB2BD" d="M107.136 270.27a9.078 9.078 0 0 1-6.46-2.676c-3.561-3.562-3.561-9.357-.001-12.919a9.082 9.082 0 0 1 6.46-2.676c2.44 0 4.734.952 6.46 2.676 3.56 3.563 3.56 9.358 0 12.92a9.08 9.08 0 0 1-6.46 2.676zm15.057 3.801l-5.49-5.488c3.715-4.762 3.392-11.65-.987-16.03a12.097 12.097 0 0 0-8.58-3.554 12.102 12.102 0 0 0-8.582 3.554c-4.738 4.74-4.738 12.423 0 17.162a12.103 12.103 0 0 0 8.582 3.555c2.633 0 5.262-.862 7.447-2.566l5.489 5.488 2.12-2.12zM82.804 207.516v1.632H80.5V216h-2.064v-6.852h-2.28v-1.632h6.648zm9.696 0l-2.94 5.664V216h-2.064v-2.82l-2.94-5.664h2.352l1.632 3.456 1.632-3.456H92.5zm4.344 5.508V216h-2.052v-8.484h3.324c1.008 0 1.776.25 2.304.75.528.5.792 1.174.792 2.022 0 .528-.118.998-.354 1.41a2.454 2.454 0 0 1-1.05.972c-.464.236-1.028.354-1.692.354h-1.272zm1.044-1.644c.824 0 1.236-.364 1.236-1.092 0-.744-.412-1.116-1.236-1.116h-1.044v2.208h1.044zm7.884-2.232v1.776h2.868v1.548h-2.868v1.884H109V216h-5.28v-8.484H109v1.632h-3.228zm21.324-1.632L125.068 216h-2.544l-1.356-5.676L119.8 216h-2.544l-2.028-8.484h2.232l1.092 6.144 1.488-6.144h2.244l1.488 6.144 1.104-6.144h2.22zm9.912 0V216h-2.064v-3.54h-3.216V216h-2.052v-8.484h2.052v3.288h3.216v-3.288h2.064zm8.172 6.936H142l-.528 1.548h-2.16l3.108-8.424h2.364l3.108 8.424h-2.184l-.528-1.548zm-.528-1.56l-1.056-3.12-1.068 3.12h2.124zm11.628-5.376v1.632h-2.304V216h-2.064v-6.852h-2.28v-1.632h6.648zm13.596 0l-2.94 5.664V216h-2.064v-2.82l-2.94-5.664h2.352l1.632 3.456 1.632-3.456h2.328zm6.324-.132c.8 0 1.526.186 2.178.558a4.065 4.065 0 0 1 1.542 1.548c.376.66.564 1.406.564 2.238 0 .832-.19 1.58-.57 2.244a4.096 4.096 0 0 1-1.548 1.554 4.293 4.293 0 0 1-2.166.558 4.293 4.293 0 0 1-2.166-.558 4.096 4.096 0 0 1-1.548-1.554c-.38-.664-.57-1.412-.57-2.244 0-.832.19-1.578.57-2.238.38-.66.896-1.176 1.548-1.548a4.293 4.293 0 0 1 2.166-.558zm0 1.908c-.672 0-1.206.218-1.602.654-.396.436-.594 1.03-.594 1.782 0 .744.198 1.336.594 1.776.396.44.93.66 1.602.66.664 0 1.196-.22 1.596-.66.4-.44.6-1.032.6-1.776s-.198-1.336-.594-1.776c-.396-.44-.93-.66-1.602-.66zm8.928-1.776v4.896c0 .56.126.988.378 1.284.252.296.618.444 1.098.444.48 0 .846-.148 1.098-.444.252-.296.378-.724.378-1.284v-4.896h2.052v4.896c0 .8-.156 1.474-.468 2.022-.312.548-.738.96-1.278 1.236s-1.15.414-1.83.414c-.68 0-1.28-.136-1.8-.408a2.898 2.898 0 0 1-1.224-1.236c-.296-.552-.444-1.228-.444-2.028v-4.896h2.04zm9.288-1.62c.152.456.228.928.228 1.416 0 .552-.142.994-.426 1.326-.284.332-.698.498-1.242.498v-.768c.416 0 .624-.268.624-.804v-.192h-.756v-1.476h1.572zM201.748 216l-1.836-3.204h-.468V216h-2.052v-8.484h3.504c.672 0 1.24.116 1.704.348.464.232.812.55 1.044.954.232.404.348.866.348 1.386 0 .616-.17 1.14-.51 1.572-.34.432-.834.728-1.482.888l2.016 3.336h-2.268zm-2.304-4.608h1.272c.408 0 .708-.09.9-.27.192-.18.288-.446.288-.798 0-.336-.098-.6-.294-.792-.196-.192-.494-.288-.894-.288h-1.272v2.148zm9.132-2.244v1.776h2.868v1.548h-2.868v1.884h3.228V216h-5.28v-8.484h5.28v1.632h-3.228zm11.844 5.28h2.736V216h-4.788v-8.484h2.052v6.912zm9.216-7.044c.8 0 1.526.186 2.178.558a4.065 4.065 0 0 1 1.542 1.548c.376.66.564 1.406.564 2.238 0 .832-.19 1.58-.57 2.244a4.096 4.096 0 0 1-1.548 1.554 4.293 4.293 0 0 1-2.166.558 4.293 4.293 0 0 1-2.166-.558 4.096 4.096 0 0 1-1.548-1.554c-.38-.664-.57-1.412-.57-2.244 0-.832.19-1.578.57-2.238.38-.66.896-1.176 1.548-1.548a4.293 4.293 0 0 1 2.166-.558zm0 1.908c-.672 0-1.206.218-1.602.654-.396.436-.594 1.03-.594 1.782 0 .744.198 1.336.594 1.776.396.44.93.66 1.602.66.664 0 1.196-.22 1.596-.66.4-.44.6-1.032.6-1.776s-.198-1.336-.594-1.776c-.396-.44-.93-.66-1.602-.66zm10.968-1.908c.8 0 1.526.186 2.178.558a4.065 4.065 0 0 1 1.542 1.548c.376.66.564 1.406.564 2.238 0 .832-.19 1.58-.57 2.244a4.096 4.096 0 0 1-1.548 1.554 4.293 4.293 0 0 1-2.166.558 4.293 4.293 0 0 1-2.166-.558 4.096 4.096 0 0 1-1.548-1.554c-.38-.664-.57-1.412-.57-2.244 0-.832.19-1.578.57-2.238.38-.66.896-1.176 1.548-1.548a4.293 4.293 0 0 1 2.166-.558zm0 1.908c-.672 0-1.206.218-1.602.654-.396.436-.594 1.03-.594 1.782 0 .744.198 1.336.594 1.776.396.44.93.66 1.602.66.664 0 1.196-.22 1.596-.66.4-.44.6-1.032.6-1.776s-.198-1.336-.594-1.776c-.396-.44-.93-.66-1.602-.66zm10.932 2.376l3.42 4.332h-2.484l-2.88-3.804V216h-2.052v-8.484h2.052v3.732l2.904-3.732h2.46l-3.42 4.152zm7.836-4.152V216h-2.052v-8.484h2.052zM269.824 216h-2.052l-3.432-5.208V216h-2.052v-8.484h2.052l3.432 5.256v-5.256h2.052V216zm6.888-8.568c1.064 0 1.94.26 2.628.78.688.52 1.116 1.224 1.284 2.112h-2.172a1.675 1.675 0 0 0-.66-.726c-.296-.18-.652-.27-1.068-.27-.648 0-1.168.218-1.56.654-.392.436-.588 1.026-.588 1.77 0 .808.206 1.428.618 1.86.412.432.998.648 1.758.648.488 0 .916-.134 1.284-.402s.628-.65.78-1.146h-2.592v-1.476h4.308v2.028c-.16.496-.416.956-.768 1.38a3.954 3.954 0 0 1-1.35 1.032c-.548.264-1.174.396-1.878.396-.856 0-1.604-.182-2.244-.546a3.74 3.74 0 0 1-1.482-1.53c-.348-.656-.522-1.404-.522-2.244 0-.84.174-1.588.522-2.244a3.751 3.751 0 0 1 1.476-1.53c.636-.364 1.378-.546 2.226-.546zm16.104.084v1.632h-3.48v1.86h2.688v1.56h-2.688V216h-2.052v-8.484h5.532zm6.588-.132c.8 0 1.526.186 2.178.558a4.065 4.065 0 0 1 1.542 1.548c.376.66.564 1.406.564 2.238 0 .832-.19 1.58-.57 2.244a4.096 4.096 0 0 1-1.548 1.554 4.293 4.293 0 0 1-2.166.558 4.293 4.293 0 0 1-2.166-.558 4.096 4.096 0 0 1-1.548-1.554c-.38-.664-.57-1.412-.57-2.244 0-.832.19-1.578.57-2.238.38-.66.896-1.176 1.548-1.548a4.293 4.293 0 0 1 2.166-.558zm0 1.908c-.672 0-1.206.218-1.602.654-.396.436-.594 1.03-.594 1.782 0 .744.198 1.336.594 1.776.396.44.93.66 1.602.66.664 0 1.196-.22 1.596-.66.4-.44.6-1.032.6-1.776s-.198-1.336-.594-1.776c-.396-.44-.93-.66-1.602-.66zM310.696 216l-1.836-3.204h-.468V216h-2.052v-8.484h3.504c.672 0 1.24.116 1.704.348.464.232.812.55 1.044.954.232.404.348.866.348 1.386 0 .616-.17 1.14-.51 1.572-.34.432-.834.728-1.482.888l2.016 3.336h-2.268zm-2.304-4.608h1.272c.408 0 .708-.09.9-.27.192-.18.288-.446.288-.798 0-.336-.098-.6-.294-.792-.196-.192-.494-.288-.894-.288h-1.272v2.148z"/><path fill="#3A416F" d="M140.118 270.405h4.988c1.257 0 2.238-.314 2.944-.942.705-.629 1.058-1.533 1.058-2.712 0-1.218-.401-2.16-1.204-2.828-.802-.667-1.918-1-3.349-1h-4.437v7.482zm0-16.356v7.279h3.509c1.682 0 2.92-.362 3.712-1.088.793-.725 1.189-1.648 1.189-2.769 0-.967-.382-1.779-1.145-2.436-.764-.657-1.9-.986-3.408-.986h-3.857zm-1.798-1.595h5.452c1.972 0 3.572.45 4.8 1.348 1.227.9 1.841 2.142 1.841 3.727 0 1.16-.324 2.15-.972 2.972a4.183 4.183 0 0 1-2.508 1.552c1.102.135 2.054.609 2.856 1.421.803.812 1.204 1.924 1.204 3.335 0 1.566-.507 2.823-1.523 3.77-1.015.947-2.47 1.421-4.364 1.421h-6.786v-19.546zM154.618 272v-20.503h1.769V272h-1.769zm15.457-14.703h1.769V272h-1.769v-2.639c-.773 1.895-2.33 2.842-4.669 2.842-1.43 0-2.566-.43-3.407-1.29-.842-.86-1.262-1.997-1.262-3.408v-10.208h1.769v9.715c0 1.121.295 1.982.885 2.581.59.6 1.367.899 2.334.899 1.295 0 2.344-.464 3.147-1.392.802-.928 1.203-2.136 1.203-3.625v-8.178zm15.805 6.525v-.667c0-1.334-.372-2.397-1.117-3.19-.744-.793-1.744-1.189-3.001-1.189-1.237 0-2.272.435-3.103 1.305-.831.87-1.315 2.117-1.45 3.741h8.671zm.899 5.655v1.798c-1.16.58-2.513.87-4.06.87-2.185 0-3.958-.681-5.322-2.045-1.363-1.363-2.044-3.156-2.044-5.379 0-2.359.6-4.215 1.798-5.568 1.199-1.353 2.755-2.03 4.669-2.03 1.798 0 3.229.59 4.292 1.769 1.063 1.18 1.595 2.842 1.595 4.988 0 .657-.039 1.18-.116 1.566h-10.382c.135 1.624.696 2.866 1.682 3.726.986.86 2.291 1.291 3.915 1.291 1.663 0 2.987-.329 3.973-.986zm7.975 7.743v-1.74c.677.31 1.353.464 2.03.464 1.102 0 1.653-.715 1.653-2.146v-16.501h1.769v16.559c0 1.199-.304 2.127-.913 2.784-.61.657-1.455.986-2.538.986-.638 0-1.305-.135-2.001-.406zm3.654-23.751a1.18 1.18 0 0 1-.348-.87c0-.348.116-.643.348-.885.232-.241.522-.362.87-.362s.643.12.885.362c.241.242.362.537.362.885s-.12.638-.363.87a1.23 1.23 0 0 1-.884.348 1.18 1.18 0 0 1-.87-.348zm15.805 10.353v-.667c0-1.334-.372-2.397-1.117-3.19-.744-.793-1.744-1.189-3.001-1.189-1.237 0-2.272.435-3.103 1.305-.831.87-1.315 2.117-1.45 3.741h8.671zm.899 5.655v1.798c-1.16.58-2.513.87-4.06.87-2.185 0-3.958-.681-5.321-2.045-1.364-1.363-2.045-3.156-2.045-5.379 0-2.359.6-4.215 1.798-5.568 1.199-1.353 2.755-2.03 4.669-2.03 1.798 0 3.229.59 4.292 1.769 1.063 1.18 1.595 2.842 1.595 4.988 0 .657-.039 1.18-.116 1.566h-10.382c.135 1.624.696 2.866 1.682 3.726.986.86 2.291 1.291 3.915 1.291 1.663 0 2.987-.329 3.973-.986zm12.615-4.466h-2.871c-1.373 0-2.397.266-3.074.797-.677.532-1.015 1.194-1.015 1.987 0 .812.266 1.47.798 1.972.531.503 1.31.754 2.334.754 1.16 0 2.088-.319 2.784-.957.696-.638 1.044-1.45 1.044-2.436v-2.117zm-7.772-5.017v-1.914c1.121-.677 2.504-1.015 4.147-1.015 3.596 0 5.394 1.885 5.394 5.655V272h-1.769v-1.711c-.812 1.237-2.223 1.856-4.234 1.856-1.353 0-2.46-.401-3.32-1.204-.86-.802-1.291-1.831-1.291-3.088 0-1.411.546-2.508 1.638-3.292 1.093-.783 2.538-1.174 4.336-1.174h2.871v-.667c0-1.315-.28-2.305-.841-2.973-.56-.667-1.498-1-2.813-1-1.527 0-2.9.416-4.118 1.247zm15.544-2.697v2.523c.909-1.837 2.465-2.755 4.669-2.755 1.411 0 2.542.435 3.393 1.305.85.87 1.276 1.991 1.276 3.364V272h-1.769v-9.715c0-1.14-.29-2.01-.87-2.61-.58-.6-1.344-.899-2.291-.899-1.199 0-2.233.46-3.103 1.377-.87.919-1.305 2.161-1.305 3.727V272h-1.769v-14.703h1.769zm21.257.522v1.769c-.909-.522-2.136-.783-3.683-.783-.85 0-1.522.198-2.016.594-.493.397-.739.914-.739 1.552 0 .387.072.725.217 1.015.146.29.397.556.754.797.358.242.663.421.914.537.251.116.657.29 1.218.522 1.353.541 2.392 1.136 3.117 1.783.726.648 1.088 1.523 1.088 2.625 0 1.218-.42 2.18-1.262 2.885-.84.706-1.996 1.059-3.465 1.059-1.779 0-3.21-.29-4.292-.87v-1.827a8.327 8.327 0 0 0 4.176 1.102c.986 0 1.735-.203 2.247-.609.513-.406.769-.938.769-1.595 0-.773-.266-1.373-.798-1.798-.531-.425-1.406-.88-2.624-1.363-1.18-.464-2.117-1.005-2.813-1.624-.696-.619-1.044-1.47-1.044-2.552 0-1.18.435-2.122 1.305-2.828.87-.705 1.962-1.058 3.277-1.058 1.585 0 2.803.222 3.654.667zm16.965 14.442c-2.069 0-3.712-.715-4.93-2.146-1.218-1.43-1.827-3.229-1.827-5.394 0-2.146.628-3.954 1.885-5.423 1.257-1.47 2.88-2.204 4.872-2.204 2.185 0 3.881.72 5.09 2.16 1.208 1.44 1.812 3.263 1.812 5.467 0 2.185-.614 3.987-1.841 5.408-1.228 1.422-2.915 2.132-5.061 2.132zm0-13.485c-1.527 0-2.726.58-3.596 1.74-.87 1.16-1.305 2.562-1.305 4.205 0 1.605.45 2.982 1.349 4.132.899 1.15 2.083 1.726 3.552 1.726 1.605 0 2.847-.565 3.726-1.697.88-1.13 1.32-2.518 1.32-4.161 0-1.701-.416-3.117-1.247-4.249-.831-1.13-2.098-1.696-3.799-1.696zm12.18-1.479v2.523c.909-1.837 2.465-2.755 4.669-2.755 1.411 0 2.542.435 3.393 1.305.85.87 1.276 1.991 1.276 3.364V272h-1.769v-9.715c0-1.14-.29-2.01-.87-2.61-.58-.6-1.344-.899-2.291-.899-1.199 0-2.233.46-3.103 1.377-.87.919-1.305 2.161-1.305 3.727V272h-1.769v-14.703h1.769zm28.275.522v1.769c-.909-.522-2.136-.783-3.683-.783-.85 0-1.522.198-2.016.594-.493.397-.739.914-.739 1.552 0 .387.072.725.217 1.015.146.29.397.556.754.797.358.242.663.421.914.537.251.116.657.29 1.218.522 1.353.541 2.392 1.136 3.117 1.783.726.648 1.088 1.523 1.088 2.625 0 1.218-.42 2.18-1.262 2.885-.84.706-1.996 1.059-3.465 1.059-1.779 0-3.21-.29-4.292-.87v-1.827a8.327 8.327 0 0 0 4.176 1.102c.986 0 1.735-.203 2.248-.609.512-.406.768-.938.768-1.595 0-.773-.266-1.373-.798-1.798-.531-.425-1.406-.88-2.624-1.363-1.18-.464-2.117-1.005-2.813-1.624-.696-.619-1.044-1.47-1.044-2.552 0-1.18.435-2.122 1.305-2.828.87-.705 1.962-1.058 3.277-1.058 1.585 0 2.803.222 3.654.667zm12.18 7.192h-2.871c-1.373 0-2.397.266-3.074.797-.677.532-1.015 1.194-1.015 1.987 0 .812.266 1.47.797 1.972.532.503 1.31.754 2.335.754 1.16 0 2.088-.319 2.784-.957.696-.638 1.044-1.45 1.044-2.436v-2.117zm-7.772-5.017v-1.914c1.121-.677 2.504-1.015 4.147-1.015 3.596 0 5.394 1.885 5.394 5.655V272h-1.769v-1.711c-.812 1.237-2.223 1.856-4.234 1.856-1.353 0-2.46-.401-3.32-1.204-.86-.802-1.291-1.831-1.291-3.088 0-1.411.546-2.508 1.638-3.292 1.093-.783 2.538-1.174 4.336-1.174h2.871v-.667c0-1.315-.28-2.305-.841-2.973-.56-.667-1.498-1-2.813-1-1.527 0-2.9.416-4.118 1.247zM332.475 272v-20.503h1.769V272h-1.769zm15.921-8.178v-.667c0-1.334-.372-2.397-1.117-3.19-.744-.793-1.744-1.189-3.001-1.189-1.237 0-2.272.435-3.103 1.305-.831.87-1.315 2.117-1.45 3.741h8.671zm.899 5.655v1.798c-1.16.58-2.513.87-4.06.87-2.185 0-3.958-.681-5.322-2.045-1.363-1.363-2.044-3.156-2.044-5.379 0-2.359.6-4.215 1.798-5.568 1.199-1.353 2.755-2.03 4.669-2.03 1.798 0 3.229.59 4.292 1.769 1.063 1.18 1.595 2.842 1.595 4.988 0 .657-.039 1.18-.116 1.566h-10.382c.135 1.624.696 2.866 1.682 3.726.986.86 2.291 1.291 3.915 1.291 1.663 0 2.987-.329 3.973-.986z"/></g></svg>
