<svg xmlns="http://www.w3.org/2000/svg" xmlns:xlink="http://www.w3.org/1999/xlink" viewBox="0 0 500 500"><defs><linearGradient id="c" x1="50%" x2="50%" y1="100%" y2="0%"><stop offset="0%" stop-color="#F5F5FA"/><stop offset="100%" stop-color="#FFF"/></linearGradient><rect id="b" width="268" height="311" rx="4"/><filter id="a" width="121.6%" height="118.6%" x="-10.8%" y="-7.1%" filterUnits="objectBoundingBox"><feOffset dy="5" in="SourceAlpha" result="shadowOffsetOuter1"/><feGaussianBlur in="shadowOffsetOuter1" result="shadowBlurOuter1" stdDeviation="7.5"/><feColorMatrix in="shadowBlurOuter1" result="shadowMatrixOuter1" values="0 0 0 0 0.145098039 0 0 0 0 0.17254902 0 0 0 0 0.380392157 0 0 0 0.15 0"/><feOffset dy="2" in="SourceAlpha" result="shadowOffsetOuter2"/><feGaussianBlur in="shadowOffsetOuter2" result="shadowBlurOuter2" stdDeviation="2"/><feColorMatrix in="shadowBlurOuter2" result="shadowMatrixOuter2" values="0 0 0 0 0.364705882 0 0 0 0 0.392156863 0 0 0 0 0.580392157 0 0 0 0.2 0"/><feMerge><feMergeNode in="shadowMatrixOuter1"/><feMergeNode in="shadowMatrixOuter2"/></feMerge></filter><rect id="e" width="120" height="161" rx="4"/><filter id="d" width="148.3%" height="136%" x="-24.2%" y="-13.7%" filterUnits="objectBoundingBox"><feOffset dy="5" in="SourceAlpha" result="shadowOffsetOuter1"/><feGaussianBlur in="shadowOffsetOuter1" result="shadowBlurOuter1" stdDeviation="7.5"/><feColorMatrix in="shadowBlurOuter1" result="shadowMatrixOuter1" values="0 0 0 0 0.145098039 0 0 0 0 0.17254902 0 0 0 0 0.380392157 0 0 0 0.15 0"/><feOffset dy="2" in="SourceAlpha" result="shadowOffsetOuter2"/><feGaussianBlur in="shadowOffsetOuter2" result="shadowBlurOuter2" stdDeviation="2"/><feColorMatrix in="shadowBlurOuter2" result="shadowMatrixOuter2" values="0 0 0 0 0.364705882 0 0 0 0 0.392156863 0 0 0 0 0.580392157 0 0 0 0.2 0"/><feMerge><feMergeNode in="shadowMatrixOuter1"/><feMergeNode in="shadowMatrixOuter2"/></feMerge></filter><rect id="g" width="120" height="161" rx="4"/><filter id="f" width="148.3%" height="136%" x="-24.2%" y="-13.7%" filterUnits="objectBoundingBox"><feOffset dy="5" in="SourceAlpha" result="shadowOffsetOuter1"/><feGaussianBlur in="shadowOffsetOuter1" result="shadowBlurOuter1" stdDeviation="7.5"/><feColorMatrix in="shadowBlurOuter1" result="shadowMatrixOuter1" values="0 0 0 0 0.145098039 0 0 0 0 0.17254902 0 0 0 0 0.380392157 0 0 0 0.15 0"/><feOffset dy="2" in="SourceAlpha" result="shadowOffsetOuter2"/><feGaussianBlur in="shadowOffsetOuter2" result="shadowBlurOuter2" stdDeviation="2"/><feColorMatrix in="shadowBlurOuter2" result="shadowMatrixOuter2" values="0 0 0 0 0.364705882 0 0 0 0 0.392156863 0 0 0 0 0.580392157 0 0 0 0.2 0"/><feMerge><feMergeNode in="shadowMatrixOuter1"/><feMergeNode in="shadowMatrixOuter2"/></feMerge></filter><rect id="i" width="120" height="161" rx="4"/><filter id="h" width="148.3%" height="136%" x="-24.2%" y="-13.7%" filterUnits="objectBoundingBox"><feOffset dy="5" in="SourceAlpha" result="shadowOffsetOuter1"/><feGaussianBlur in="shadowOffsetOuter1" result="shadowBlurOuter1" stdDeviation="7.5"/><feColorMatrix in="shadowBlurOuter1" result="shadowMatrixOuter1" values="0 0 0 0 0.145098039 0 0 0 0 0.17254902 0 0 0 0 0.380392157 0 0 0 0.15 0"/><feOffset dy="2" in="SourceAlpha" result="shadowOffsetOuter2"/><feGaussianBlur in="shadowOffsetOuter2" result="shadowBlurOuter2" stdDeviation="2"/><feColorMatrix in="shadowBlurOuter2" result="shadowMatrixOuter2" values="0 0 0 0 0.364705882 0 0 0 0 0.392156863 0 0 0 0 0.580392157 0 0 0 0.2 0"/><feMerge><feMergeNode in="shadowMatrixOuter1"/><feMergeNode in="shadowMatrixOuter2"/></feMerge></filter><rect id="k" width="120" height="161" rx="4"/><filter id="j" width="148.3%" height="136%" x="-24.2%" y="-13.7%" filterUnits="objectBoundingBox"><feOffset dy="5" in="SourceAlpha" result="shadowOffsetOuter1"/><feGaussianBlur in="shadowOffsetOuter1" result="shadowBlurOuter1" stdDeviation="7.5"/><feColorMatrix in="shadowBlurOuter1" result="shadowMatrixOuter1" values="0 0 0 0 0.145098039 0 0 0 0 0.17254902 0 0 0 0 0.380392157 0 0 0 0.15 0"/><feOffset dy="2" in="SourceAlpha" result="shadowOffsetOuter2"/><feGaussianBlur in="shadowOffsetOuter2" result="shadowBlurOuter2" stdDeviation="2"/><feColorMatrix in="shadowBlurOuter2" result="shadowMatrixOuter2" values="0 0 0 0 0.364705882 0 0 0 0 0.392156863 0 0 0 0 0.580392157 0 0 0 0.2 0"/><feMerge><feMergeNode in="shadowMatrixOuter1"/><feMergeNode in="shadowMatrixOuter2"/></feMerge></filter></defs><g fill="none" fill-rule="evenodd"><g stroke-width="1.078"><path stroke="#C5C9E0" d="M426.352 426.353c-97.447 0-176.442-78.997-176.442-176.443M480.443 345.4c-90.029 37.29-193.242-5.461-230.534-95.49"/><path stroke="#C5C9E0" stroke-dasharray="10.776" d="M499.438 249.91c-68.905 68.905-180.623 68.905-249.53 0"/><path stroke="#C5C9E0" d="M480.443 154.42c-37.29 90.028-140.505 132.78-230.534 95.49"/><path stroke="#C5C9E0" stroke-dasharray="10.776" d="M426.352 73.466c0 97.448-78.996 176.443-176.442 176.443"/><path stroke="#C5C9E0" d="M345.4 19.375c37.29 90.03-5.461 193.243-95.49 230.535M249.91.381c68.904 68.905 68.904 180.623 0 249.528M154.419 19.375c90.03 37.291 132.782 140.506 95.49 230.535M73.466 73.466c97.447 0 176.443 78.997 176.443 176.443"/><path stroke="#AE3E88" d="M19.375 154.42c90.03-37.292 193.243 5.46 230.535 95.49"/><path stroke="#C5C9E0" stroke-dasharray="10.776" d="M.38 249.91c68.906-68.906 180.624-68.906 249.529 0"/><path stroke="#C5C9E0" d="M19.375 345.4c37.291-90.03 140.506-132.781 230.535-95.49M73.466 426.353c0-97.447 78.997-176.443 176.443-176.443"/><path stroke="#C5C9E0" stroke-dasharray="10.776" d="M154.419 480.444c-37.291-90.03 5.461-193.243 95.49-230.535"/><path stroke="#C5C9E0" d="M249.91 499.438c-68.906-68.905-68.906-180.623 0-249.528M345.4 480.444c-90.03-37.291-132.782-140.506-95.49-230.535"/></g><g transform="translate(108 64)"><use fill="#000" filter="url(#a)" xlink:href="#b"/><use fill="url(#c)" xlink:href="#b"/></g><g transform="translate(141 103)"><use fill="#000" filter="url(#d)" xlink:href="#e"/><use fill="url(#c)" xlink:href="#e"/><g transform="translate(18 28)"><ellipse cx="41.477" cy="41.45" fill="#FFCAE9" rx="41.477" ry="41.45"/><path fill="#AE3E88" d="M28.588 19.17h26.02a2 2 0 0 1 1.962 1.617l8.031 41.077a2 2 0 0 1-1.963 2.383h-9.103a2 2 0 0 1-1.892-1.352l-7.94-23.21a2 2 0 0 0-3.8.044L32.587 62.85a2 2 0 0 1-1.907 1.396H20.084a2 2 0 0 1-1.958-2.405l8.504-41.077a2 2 0 0 1 1.958-1.594z"/></g><rect width="78" height="8" x="12" y="134" fill="#FFCAE9" rx="4"/><rect width="29" height="4" x="12" y="126" fill="#F89AD3" rx="2"/></g><path fill="#AE3E88" d="M146.064 90l-1.836-3.204h-.468V90h-2.052v-8.484h3.504c.672 0 1.24.116 1.704.348.464.232.812.55 1.044.954.232.404.348.866.348 1.386 0 .616-.17 1.14-.51 1.572-.34.432-.834.728-1.482.888L148.332 90h-2.268zm-2.304-4.608h1.272c.408 0 .708-.09.9-.27.192-.18.288-.446.288-.798 0-.336-.098-.6-.294-.792-.196-.192-.494-.288-.894-.288h-1.272v2.148zm9.132-2.244v1.776h2.868v1.548h-2.868v1.884h3.228V90h-5.28v-8.484h5.28v1.632h-3.228zm9.768-1.716c1.08 0 1.974.284 2.682.852.708.568 1.166 1.336 1.374 2.304h-2.172c-.16-.392-.406-.7-.738-.924-.332-.224-.726-.336-1.182-.336-.6 0-1.084.22-1.452.66-.368.44-.552 1.028-.552 1.764s.184 1.322.552 1.758c.368.436.852.654 1.452.654.456 0 .85-.112 1.182-.336.332-.224.578-.528.738-.912h2.172c-.208.96-.666 1.726-1.374 2.298-.708.572-1.602.858-2.682.858-.824 0-1.548-.182-2.172-.546a3.706 3.706 0 0 1-1.446-1.53c-.34-.656-.51-1.404-.51-2.244 0-.84.17-1.588.51-2.244a3.706 3.706 0 0 1 1.446-1.53c.624-.364 1.348-.546 2.172-.546zm10.74-.048c.8 0 1.526.186 2.178.558a4.065 4.065 0 0 1 1.542 1.548c.376.66.564 1.406.564 2.238 0 .832-.19 1.58-.57 2.244a4.096 4.096 0 0 1-1.548 1.554 4.293 4.293 0 0 1-2.166.558 4.293 4.293 0 0 1-2.166-.558 4.096 4.096 0 0 1-1.548-1.554c-.38-.664-.57-1.412-.57-2.244 0-.832.19-1.578.57-2.238.38-.66.896-1.176 1.548-1.548a4.293 4.293 0 0 1 2.166-.558zm0 1.908c-.672 0-1.206.218-1.602.654-.396.436-.594 1.03-.594 1.782 0 .744.198 1.336.594 1.776.396.44.93.66 1.602.66.664 0 1.196-.22 1.596-.66.4-.44.6-1.032.6-1.776s-.198-1.336-.594-1.776c-.396-.44-.93-.66-1.602-.66zm16.476-1.716V90h-2.052v-5.268L186 90h-1.776l-1.836-5.28V90h-2.052v-8.424h2.508l2.292 5.868 2.244-5.868h2.496zm12.456 0V90h-2.052v-5.268L198.456 90h-1.776l-1.836-5.28V90h-2.052v-8.424h2.508l2.292 5.868 2.244-5.868h2.496zm4.968 1.572v1.776h2.868v1.548H207.3v1.884h3.228V90h-5.28v-8.484h5.28v1.632H207.3zM220.728 90h-2.052l-3.432-5.208V90h-2.052v-8.484h2.052l3.432 5.256v-5.256h2.052V90zm10.548-4.26c0 .832-.178 1.57-.534 2.214a3.74 3.74 0 0 1-1.536 1.506c-.668.36-1.454.54-2.358.54h-3.204v-8.484h3.204c.912 0 1.7.176 2.364.528a3.684 3.684 0 0 1 1.53 1.488c.356.64.534 1.376.534 2.208zm-4.608 2.424c.8 0 1.422-.212 1.866-.636.444-.424.666-1.02.666-1.788s-.222-1.364-.666-1.788c-.444-.424-1.066-.636-1.866-.636h-.972v4.848h.972zm9.324-5.016v1.776h2.868v1.548h-2.868v1.884h3.228V90h-5.28v-8.484h5.28v1.632h-3.228zm13.524 2.592c0 .832-.178 1.57-.534 2.214a3.74 3.74 0 0 1-1.536 1.506c-.668.36-1.454.54-2.358.54h-3.204v-8.484h3.204c.912 0 1.7.176 2.364.528a3.684 3.684 0 0 1 1.53 1.488c.356.64.534 1.376.534 2.208zm-4.608 2.424c.8 0 1.422-.212 1.866-.636.444-.424.666-1.02.666-1.788s-.222-1.364-.666-1.788c-.444-.424-1.066-.636-1.866-.636h-.972v4.848h.972zm15.204-6.78c.8 0 1.526.186 2.178.558a4.065 4.065 0 0 1 1.542 1.548c.376.66.564 1.406.564 2.238 0 .832-.19 1.58-.57 2.244a4.096 4.096 0 0 1-1.548 1.554 4.293 4.293 0 0 1-2.166.558 4.293 4.293 0 0 1-2.166-.558 4.096 4.096 0 0 1-1.548-1.554c-.38-.664-.57-1.412-.57-2.244 0-.832.19-1.578.57-2.238.38-.66.896-1.176 1.548-1.548a4.293 4.293 0 0 1 2.166-.558zm0 1.908c-.672 0-1.206.218-1.602.654-.396.436-.594 1.03-.594 1.782 0 .744.198 1.336.594 1.776.396.44.93.66 1.602.66.664 0 1.196-.22 1.596-.66.4-.44.6-1.032.6-1.776s-.198-1.336-.594-1.776c-.396-.44-.93-.66-1.602-.66zM274.584 90h-2.052l-3.432-5.208V90h-2.052v-8.484h2.052l3.432 5.256v-5.256h2.052V90zm4.968-1.572h2.736V90H277.5v-8.484h2.052v6.912zm12.516-6.912l-2.94 5.664V90h-2.064v-2.82l-2.94-5.664h2.352l1.632 3.456 1.632-3.456h2.328zm11.724 0v1.632h-3.48v1.86H303v1.56h-2.688V90h-2.052v-8.484h5.532zm6.588-.132c.8 0 1.526.186 2.178.558a4.065 4.065 0 0 1 1.542 1.548c.376.66.564 1.406.564 2.238 0 .832-.19 1.58-.57 2.244a4.096 4.096 0 0 1-1.548 1.554 4.293 4.293 0 0 1-2.166.558 4.293 4.293 0 0 1-2.166-.558 4.096 4.096 0 0 1-1.548-1.554c-.38-.664-.57-1.412-.57-2.244 0-.832.19-1.578.57-2.238.38-.66.896-1.176 1.548-1.548a4.293 4.293 0 0 1 2.166-.558zm0 1.908c-.672 0-1.206.218-1.602.654-.396.436-.594 1.03-.594 1.782 0 .744.198 1.336.594 1.776.396.44.93.66 1.602.66.664 0 1.196-.22 1.596-.66.4-.44.6-1.032.6-1.776s-.198-1.336-.594-1.776c-.396-.44-.93-.66-1.602-.66zM321.672 90l-1.836-3.204h-.468V90h-2.052v-8.484h3.504c.672 0 1.24.116 1.704.348.464.232.812.55 1.044.954.232.404.348.866.348 1.386 0 .616-.17 1.14-.51 1.572-.34.432-.834.728-1.482.888L323.94 90h-2.268zm-2.304-4.608h1.272c.408 0 .708-.09.9-.27.192-.18.288-.446.288-.798 0-.336-.098-.6-.294-.792-.196-.192-.494-.288-.894-.288h-1.272v2.148zm18.312-3.876l-2.94 5.664V90h-2.064v-2.82l-2.94-5.664h2.352l1.632 3.456 1.632-3.456h2.328zm6.324-.132c.8 0 1.526.186 2.178.558a4.065 4.065 0 0 1 1.542 1.548c.376.66.564 1.406.564 2.238 0 .832-.19 1.58-.57 2.244a4.096 4.096 0 0 1-1.548 1.554 4.293 4.293 0 0 1-2.166.558 4.293 4.293 0 0 1-2.166-.558 4.096 4.096 0 0 1-1.548-1.554c-.38-.664-.57-1.412-.57-2.244 0-.832.19-1.578.57-2.238.38-.66.896-1.176 1.548-1.548a4.293 4.293 0 0 1 2.166-.558zm0 1.908c-.672 0-1.206.218-1.602.654-.396.436-.594 1.03-.594 1.782 0 .744.198 1.336.594 1.776.396.44.93.66 1.602.66.664 0 1.196-.22 1.596-.66.4-.44.6-1.032.6-1.776s-.198-1.336-.594-1.776c-.396-.44-.93-.66-1.602-.66zm8.928-1.776v4.896c0 .56.126.988.378 1.284.252.296.618.444 1.098.444.48 0 .846-.148 1.098-.444.252-.296.378-.724.378-1.284v-4.896h2.052v4.896c0 .8-.156 1.474-.468 2.022-.312.548-.738.96-1.278 1.236s-1.15.414-1.83.414c-.68 0-1.28-.136-1.8-.408a2.898 2.898 0 0 1-1.224-1.236c-.296-.552-.444-1.228-.444-2.028v-4.896h2.04z"/><g transform="translate(141 275)"><use fill="#000" filter="url(#f)" xlink:href="#g"/><use fill="url(#c)" xlink:href="#g"/><g transform="translate(18 28)"><ellipse cx="41.477" cy="41.45" fill="#FFCAE9" rx="41.477" ry="41.45"/><path fill="#AE3E88" d="M26.096 52h-6.192c-.5 0-.904-.448-.904-1s.405-1 .904-1h6.192c.5 0 .904.448.904 1s-.405 1-.904 1m38.115-6.95L54.16 42.074a6.905 6.905 0 0 1-2.145-1.118L35.528 28.24a1.154 1.154 0 0 0-1.614.2l-.049.062a4.624 4.624 0 0 0-.01 5.712.703.703 0 0 1-.053.927l-2.375 2.394a3.303 3.303 0 0 1-2.345.98h-1.671c-1.349 0-2.61-.784-3.12-2.044a3.317 3.317 0 0 0-3.071-2.081h-1.087c-1.747 0-3.194 1.366-3.31 3.123l-.535 8.147-.185 2.814c-.099.1-.114 1.122-.097 2.26.025 1.81 1.486 3.265 3.28 3.265h39.801c2.234 0 4.416-.69 6.25-1.979a3.92 3.92 0 0 0 1.613-2.587c.312-1.948-.861-3.827-2.74-4.383"/></g><rect width="78" height="8" x="12" y="134" fill="#FFCAE9" rx="4"/><rect width="29" height="4" x="12" y="126" fill="#F89AD3" rx="2"/></g><g transform="translate(272 103)"><use fill="#000" filter="url(#h)" xlink:href="#i"/><use fill="url(#c)" xlink:href="#i"/><ellipse cx="41.477" cy="41.45" fill="#FFCAE9" rx="41.477" ry="41.45" transform="translate(18 28)"/><rect width="78" height="8" x="12" y="134" fill="#FFCAE9" rx="4"/><rect width="29" height="4" x="12" y="126" fill="#F89AD3" rx="2"/><path fill="#AE3E88" d="M71.685 45.182a1.7 1.7 0 0 0-2.332.863c-.992 2.343-3.58 6.2-9.853 6.2-6.274 0-8.861-3.857-9.854-6.2a1.7 1.7 0 0 0-2.331-.863l-13.372 6.733a1.722 1.722 0 0 0-.863 2.056l3.401 10.804a1.707 1.707 0 0 0 1.626 1.199h6.217v25.308c0 .949.763 1.718 1.705 1.718h26.942c.941 0 1.705-.77 1.705-1.718V65.974h6.217c.743 0 1.4-.485 1.625-1.199l3.402-10.804a1.723 1.723 0 0 0-.863-2.056l-13.372-6.733z"/></g><g transform="translate(272 275)"><use fill="#000" filter="url(#j)" xlink:href="#k"/><use fill="url(#c)" xlink:href="#k"/><g transform="translate(18 28)"><ellipse cx="41.477" cy="41.45" fill="#FFCAE9" rx="41.477" ry="41.45"/><path fill="#AE3E88" d="M65.202 52.843H18.349c-.746 0-1.349-.636-1.349-1.421S17.603 50 18.349 50h46.853c.745 0 1.348.637 1.348 1.422 0 .785-.603 1.421-1.348 1.421zM23.34 48v-5.984h36.648V48H23.34zm36.648-8H23.34v-8.211c0-1.54 1.22-2.789 2.725-2.789h31.198c1.505 0 2.725 1.249 2.725 2.789V40z"/></g><rect width="78" height="8" x="12" y="134" fill="#FFCAE9" rx="4"/><rect width="29" height="4" x="12" y="126" fill="#F89AD3" rx="2"/></g></g></svg>
